<?xml version="1.0" encoding="UTF-8" standalone="no"?><!-- Generator: Gravit.io --><svg xmlns="http://www.w3.org/2000/svg" xmlns:xlink="http://www.w3.org/1999/xlink" style="isolation:isolate" viewBox="0 0 511.998 415.837" width="511.998pt" height="415.837pt"><defs><clipPath id="_clipPath_0Jnf9MnnxNweSCDM458Ir4iColihlJYd"><rect width="511.998" height="415.837"/></clipPath></defs><g clip-path="url(#_clipPath_0Jnf9MnnxNweSCDM458Ir4iColihlJYd)"><rect width="511.998" height="415.837" style="fill:rgb(0,0,0)" fill-opacity="0"/><g><rect x="0" y="358.948" width="56.889" height="56.889" transform="matrix(1,0,0,1,0,0)" fill="rgb(209,209,209)"/><rect x="0" y="302.06" width="56.889" height="56.889" transform="matrix(1,0,0,1,0,0)" fill="rgb(209,209,209)"/><rect x="0" y="244.961" width="56.889" height="56.889" transform="matrix(1,0,0,1,0,0)" fill="rgb(209,209,209)"/><rect x="0" y="188.282" width="56.889" height="56.889" transform="matrix(1,0,0,1,0,0)" fill="rgb(209,209,209)"/><rect x="0" y="131.394" width="56.889" height="56.889" transform="matrix(1,0,0,1,0,0)" fill="rgb(209,209,209)"/><rect x="0" y="74.505" width="56.889" height="56.889" transform="matrix(1,0,0,1,0,0)" fill="rgb(209,209,209)"/><rect x="0" y="17.616" width="56.889" height="56.889" transform="matrix(1,0,0,1,0,0)" fill="rgb(209,209,209)"/><rect x="56.889" y="358.948" width="56.889" height="56.889" transform="matrix(1,0,0,1,0,0)" fill="rgb(209,209,209)"/><rect x="113.777" y="358.948" width="56.889" height="56.889" transform="matrix(1,0,0,1,0,0)" fill="rgb(209,209,209)"/><rect x="113.777" y="188.282" width="56.889" height="56.889" transform="matrix(1,0,0,1,0,0)" fill="rgb(209,209,209)"/><rect x="56.889" y="131.394" width="56.889" height="56.889" transform="matrix(1,0,0,1,0,0)" fill="rgb(209,209,209)"/><rect x="113.777" y="17.616" width="56.889" height="56.889" transform="matrix(1,0,0,1,0,0)" fill="rgb(209,209,209)"/><rect x="56.889" y="17.616" width="56.889" height="56.889" transform="matrix(1,0,0,1,0,0)" fill="rgb(209,209,209)"/><rect x="170.666" y="358.948" width="56.889" height="56.889" transform="matrix(1,0,0,1,0,0)" fill="rgb(209,209,209)"/><rect x="227.555" y="358.948" width="56.889" height="56.889" transform="matrix(1,0,0,1,0,0)" fill="rgb(209,209,209)"/><rect x="170.666" y="244.961" width="56.889" height="56.889" transform="matrix(1,0,0,1,0,0)" fill="rgb(209,209,209)"/><rect x="227.555" y="244.961" width="56.889" height="56.889" transform="matrix(1,0,0,1,0,0)" fill="rgb(209,209,209)"/><rect x="227.555" y="17.616" width="56.889" height="56.889" transform="matrix(1,0,0,1,0,0)" fill="rgb(209,209,209)"/><rect x="170.666" y="17.616" width="56.889" height="56.889" transform="matrix(1,0,0,1,0,0)" fill="rgb(209,209,209)"/><rect x="284.443" y="358.948" width="56.889" height="56.889" transform="matrix(1,0,0,1,0,0)" fill="rgb(209,209,209)"/><rect x="341.332" y="358.948" width="56.889" height="56.889" transform="matrix(1,0,0,1,0,0)" fill="rgb(209,209,209)"/><rect x="284.443" y="244.961" width="56.889" height="56.889" transform="matrix(1,0,0,1,0,0)" fill="rgb(209,209,209)"/><rect x="341.332" y="188.282" width="56.889" height="56.889" transform="matrix(1,0,0,1,0,0)" fill="rgb(209,209,209)"/><rect x="341.332" y="17.616" width="56.889" height="56.889" transform="matrix(1,0,0,1,0,0)" fill="rgb(209,209,209)"/><rect x="284.443" y="17.616" width="56.889" height="56.889" transform="matrix(1,0,0,1,0,0)" fill="rgb(209,209,209)"/><rect x="398.221" y="358.948" width="56.889" height="56.889" transform="matrix(1,0,0,1,0,0)" fill="rgb(209,209,209)"/><rect x="455.109" y="358.948" width="56.889" height="56.889" transform="matrix(1,0,0,1,0,0)" fill="rgb(209,209,209)"/><rect x="455.109" y="302.06" width="56.889" height="56.889" transform="matrix(1,0,0,1,0,0)" fill="rgb(209,209,209)"/><rect x="455.109" y="244.961" width="56.889" height="56.889" transform="matrix(1,0,0,1,0,0)" fill="rgb(209,209,209)"/><rect x="455.109" y="188.282" width="56.889" height="56.889" transform="matrix(1,0,0,1,0,0)" fill="rgb(209,209,209)"/><rect x="455.109" y="131.394" width="56.889" height="56.889" transform="matrix(1,0,0,1,0,0)" fill="rgb(209,209,209)"/><rect x="398.221" y="131.394" width="56.889" height="56.889" transform="matrix(1,0,0,1,0,0)" fill="rgb(209,209,209)"/><rect x="455.109" y="74.505" width="56.889" height="56.889" transform="matrix(1,0,0,1,0,0)" fill="rgb(209,209,209)"/><rect x="455.109" y="17.616" width="56.889" height="56.889" transform="matrix(1,0,0,1,0,0)" fill="rgb(209,209,209)"/><rect x="398.221" y="17.616" width="56.889" height="56.889" transform="matrix(1,0,0,1,0,0)" fill="rgb(209,209,209)"/></g></g></svg>