<?xml version="1.0" encoding="UTF-8" standalone="no"?><!-- Generator: Gravit.io --><svg xmlns="http://www.w3.org/2000/svg" xmlns:xlink="http://www.w3.org/1999/xlink" style="isolation:isolate" viewBox="0 0 496 493" width="496pt" height="493pt"><defs><clipPath id="_clipPath_w56SFqkhaifm32FhQbsYQtLJrfLl7hua"><rect width="496" height="493"/></clipPath></defs><g clip-path="url(#_clipPath_w56SFqkhaifm32FhQbsYQtLJrfLl7hua)"><rect width="496" height="493" style="fill:rgb(0,0,0)" fill-opacity="0"/><g><rect x="274.833" y="437.616" width="53.667" height="54.677" transform="matrix(1,0,0,1,0,0)" fill="rgb(59,89,152)"/><rect x="274.833" y="382.94" width="53.667" height="54.677" transform="matrix(1,0,0,1,0,0)" fill="rgb(59,89,152)"/><rect x="274.833" y="328.263" width="53.667" height="54.677" transform="matrix(1,0,0,1,0,0)" fill="rgb(59,89,152)"/><rect x="113.833" y="382.738" width="53.667" height="54.677" transform="matrix(1,0,0,1,0,0)" fill="rgb(59,89,152)"/><rect x="113.833" y="328.061" width="53.667" height="54.677" transform="matrix(1,0,0,1,0,0)" fill="rgb(59,89,152)"/><rect x="167.5" y="438.323" width="53.667" height="54.677" transform="matrix(1,0,0,1,0,0)" fill="rgb(59,89,152)"/><rect x="167.5" y="383.343" width="53.667" height="54.677" transform="matrix(1,0,0,1,0,0)" fill="rgb(59,89,152)"/><rect x="167.5" y="328.667" width="53.667" height="54.677" transform="matrix(1,0,0,1,0,0)" fill="rgb(59,89,152)"/><rect x="60.167" y="382.94" width="53.667" height="54.677" transform="matrix(1,0,0,1,0,0)" fill="rgb(59,89,152)"/><rect x="60.167" y="328.263" width="53.667" height="54.677" transform="matrix(1,0,0,1,0,0)" fill="rgb(59,89,152)"/><rect x="382.167" y="382.94" width="53.667" height="54.677" transform="matrix(1,0,0,1,0,0)" fill="rgb(59,89,152)"/><rect x="382.167" y="328.263" width="53.667" height="54.677" transform="matrix(1,0,0,1,0,0)" fill="rgb(59,89,152)"/><rect x="382.167" y="273.384" width="53.667" height="54.677" transform="matrix(1,0,0,1,0,0)" fill="rgb(59,89,152)"/><rect x="382.167" y="218.707" width="53.667" height="54.677" transform="matrix(1,0,0,1,0,0)" fill="rgb(59,89,152)"/><rect x="328.5" y="382.94" width="53.667" height="54.677" transform="matrix(1,0,0,1,0,0)" fill="rgb(59,89,152)"/><rect x="328.5" y="328.263" width="53.667" height="54.677" transform="matrix(1,0,0,1,0,0)" fill="rgb(59,89,152)"/><rect x="167.5" y="55.081" width="53.667" height="54.677" transform="matrix(1,0,0,1,0,0)" fill="rgb(59,89,152)"/><rect x="221.167" y="55.081" width="53.667" height="54.677" transform="matrix(1,0,0,1,0,0)" fill="rgb(59,89,152)"/><rect x="167.5" y="55.081" width="53.667" height="54.677" transform="matrix(1,0,0,1,0,0)" fill="rgb(59,89,152)"/><rect x="221.167" y="55.081" width="53.667" height="54.677" transform="matrix(1,0,0,1,0,0)" fill="rgb(59,89,152)"/><rect x="274.833" y="55.081" width="53.667" height="54.677" transform="matrix(1,0,0,1,0,0)" fill="rgb(59,89,152)"/><rect x="328.5" y="55.081" width="53.667" height="54.677" transform="matrix(1,0,0,1,0,0)" fill="rgb(59,89,152)"/><rect x="382.167" y="55.081" width="53.667" height="54.677" transform="matrix(1,0,0,1,0,0)" fill="rgb(59,89,152)"/><rect x="382.167" y="109.758" width="53.667" height="54.677" transform="matrix(1,0,0,1,0,0)" fill="rgb(59,89,152)"/><rect x="113.833" y="109.556" width="53.667" height="54.677" transform="matrix(1,0,0,1,0,0)" fill="rgb(59,89,152)"/><rect x="167.5" y="110.464" width="53.667" height="54.677" transform="matrix(1,0,0,1,0,0)" fill="rgb(59,89,152)"/><rect x="113.833" y="55.081" width="53.667" height="54.677" transform="matrix(1,0,0,1,0,0)" fill="rgb(59,89,152)"/><rect x="167.5" y="0" width="53.667" height="54.677" transform="matrix(1,0,0,1,0,0)" fill="rgb(59,89,152)"/><rect x="221.167" y="0" width="53.667" height="54.677" transform="matrix(1,0,0,1,0,0)" fill="rgb(59,89,152)"/><rect x="274.833" y="0" width="53.667" height="54.677" transform="matrix(1,0,0,1,0,0)" fill="rgb(59,89,152)"/><rect x="60.167" y="109.758" width="53.667" height="54.677" transform="matrix(1,0,0,1,0,0)" fill="rgb(59,89,152)"/><rect x="382.167" y="164.434" width="53.667" height="54.677" transform="matrix(1,0,0,1,0,0)" fill="rgb(59,89,152)"/><rect x="328.5" y="164.232" width="53.667" height="54.677" transform="matrix(1,0,0,1,0,0)" fill="rgb(59,89,152)"/><rect x="274.833" y="164.434" width="53.667" height="54.677" transform="matrix(1,0,0,1,0,0)" fill="rgb(59,89,152)"/><rect x="328.5" y="164.232" width="53.667" height="54.677" transform="matrix(1,0,0,1,0,0)" fill="rgb(59,89,152)"/><rect x="274.833" y="164.434" width="53.667" height="54.677" transform="matrix(1,0,0,1,0,0)" fill="rgb(59,89,152)"/><rect x="328.5" y="218.505" width="53.667" height="54.677" transform="matrix(1,0,0,1,0,0)" fill="rgb(59,89,152)"/><rect x="274.833" y="218.707" width="53.667" height="54.677" transform="matrix(1,0,0,1,0,0)" fill="rgb(59,89,152)"/><rect x="60.167" y="55.081" width="53.667" height="54.677" transform="matrix(1,0,0,1,0,0)" fill="rgb(59,89,152)"/><rect x="113.833" y="164.434" width="53.667" height="54.677" transform="matrix(1,0,0,1,0,0)" fill="rgb(59,89,152)"/><rect x="113.833" y="219.111" width="53.667" height="54.677" transform="matrix(1,0,0,1,0,0)" fill="rgb(59,89,152)"/><rect x="167.5" y="164.232" width="53.667" height="54.677" transform="matrix(1,0,0,1,0,0)" fill="rgb(59,89,152)"/><rect x="167.5" y="218.909" width="53.667" height="54.677" transform="matrix(1,0,0,1,0,0)" fill="rgb(59,89,152)"/><rect x="60.167" y="164.232" width="53.667" height="54.677" transform="matrix(1,0,0,1,0,0)" fill="rgb(59,89,152)"/><rect x="6.5" y="164.434" width="53.667" height="54.677" transform="matrix(1,0,0,1,0,0)" fill="rgb(59,89,152)"/><rect x="60.167" y="273.586" width="53.667" height="54.677" transform="matrix(1,0,0,1,0,0)" fill="rgb(59,89,152)"/><rect x="6.5" y="273.586" width="53.667" height="54.677" transform="matrix(1,0,0,1,0,0)" fill="rgb(59,89,152)"/><rect x="60.167" y="218.909" width="53.667" height="54.677" transform="matrix(1,0,0,1,0,0)" fill="rgb(59,89,152)"/><rect x="6.5" y="218.909" width="53.667" height="54.677" transform="matrix(1,0,0,1,0,0)" fill="rgb(59,89,152)"/><rect x="435.833" y="164.434" width="53.667" height="54.677" transform="matrix(1,0,0,1,0,0)" fill="rgb(59,89,152)"/><rect x="435.833" y="273.586" width="53.667" height="54.677" transform="matrix(1,0,0,1,0,0)" fill="rgb(59,89,152)"/><rect x="435.833" y="218.909" width="53.667" height="54.677" transform="matrix(1,0,0,1,0,0)" fill="rgb(59,89,152)"/></g></g></svg>