<?xml version="1.0" encoding="UTF-8" standalone="no"?><!-- Generator: Gravit.io --><svg xmlns="http://www.w3.org/2000/svg" xmlns:xlink="http://www.w3.org/1999/xlink" style="isolation:isolate" viewBox="0 0 448.25 448.15" width="448.25pt" height="448.15pt"><defs><clipPath id="_clipPath_c3ZKnv5H9sW0t5z6OgwJJ7yPVWLZ5ROs"><rect width="448.25" height="448.15"/></clipPath></defs><g clip-path="url(#_clipPath_c3ZKnv5H9sW0t5z6OgwJJ7yPVWLZ5ROs)"><rect width="448.25" height="448.15" style="fill:rgb(0,0,0)" fill-opacity="0"/><g><rect x="0" y="298.649" width="49.806" height="49.806" transform="matrix(1,0,0,1,0,0)" fill="rgb(110,84,148)"/><rect x="0" y="249.028" width="49.806" height="49.806" transform="matrix(1,0,0,1,0,0)" fill="rgb(110,84,148)"/><rect x="0" y="199.222" width="49.806" height="49.806" transform="matrix(1,0,0,1,0,0)" fill="rgb(110,84,148)"/><rect x="0" y="149.417" width="49.806" height="49.806" transform="matrix(1,0,0,1,0,0)" fill="rgb(110,84,148)"/><rect x="0" y="99.611" width="49.806" height="49.806" transform="matrix(1,0,0,1,0,0)" fill="rgb(110,84,148)"/><rect x="99.611" y="398.444" width="49.806" height="49.806" transform="matrix(1,0,0,1,0,0)" fill="rgb(110,84,148)"/><rect x="99.611" y="348.639" width="49.806" height="49.806" transform="matrix(1,0,0,1,0,0)" fill="rgb(110,84,148)"/><rect x="49.806" y="348.639" width="49.806" height="49.806" transform="matrix(1,0,0,1,0,0)" fill="rgb(110,84,148)"/><rect x="49.806" y="298.649" width="49.806" height="49.806" transform="matrix(1,0,0,1,0,0)" fill="rgb(110,84,148)"/><rect x="99.611" y="298.649" width="49.806" height="49.806" transform="matrix(1,0,0,1,0,0)" fill="rgb(110,84,148)"/><rect x="49.806" y="249.028" width="49.806" height="49.806" transform="matrix(1,0,0,1,0,0)" fill="rgb(110,84,148)"/><rect x="49.806" y="199.222" width="49.806" height="49.806" transform="matrix(1,0,0,1,0,0)" fill="rgb(110,84,148)"/><rect x="49.806" y="149.417" width="49.806" height="49.806" transform="matrix(1,0,0,1,0,0)" fill="rgb(110,84,148)"/><rect x="49.806" y="99.611" width="49.806" height="49.806" transform="matrix(1,0,0,1,0,0)" fill="rgb(110,84,148)"/><rect x="149.417" y="298.649" width="49.806" height="49.806" transform="matrix(1,0,0,1,0,0)" fill="rgb(110,84,148)"/><rect x="199.222" y="99.611" width="49.806" height="49.806" transform="matrix(1,0,0,1,0,0)" fill="rgb(110,84,148)"/><rect x="149.417" y="99.611" width="49.806" height="49.806" transform="matrix(1,0,0,1,0,0)" fill="rgb(110,84,148)"/><rect x="298.833" y="398.444" width="49.806" height="49.806" transform="matrix(1,0,0,1,0,0)" fill="rgb(110,84,148)"/><rect x="298.833" y="348.639" width="49.806" height="49.806" transform="matrix(1,0,0,1,0,0)" fill="rgb(110,84,148)"/><rect x="249.028" y="298.649" width="49.806" height="49.806" transform="matrix(1,0,0,1,0,0)" fill="rgb(110,84,148)"/><rect x="298.833" y="298.649" width="49.806" height="49.806" transform="matrix(1,0,0,1,0,0)" fill="rgb(110,84,148)"/><rect x="249.028" y="99.611" width="49.806" height="49.806" transform="matrix(1,0,0,1,0,0)" fill="rgb(110,84,148)"/><rect x="348.639" y="348.639" width="49.806" height="49.806" transform="matrix(1,0,0,1,0,0)" fill="rgb(110,84,148)"/><rect x="348.639" y="298.649" width="49.806" height="49.806" transform="matrix(1,0,0,1,0,0)" fill="rgb(110,84,148)"/><rect x="398.444" y="298.649" width="49.806" height="49.806" transform="matrix(1,0,0,1,0,0)" fill="rgb(110,84,148)"/><rect x="348.639" y="249.028" width="49.806" height="49.806" transform="matrix(1,0,0,1,0,0)" fill="rgb(110,84,148)"/><rect x="398.444" y="249.028" width="49.806" height="49.806" transform="matrix(1,0,0,1,0,0)" fill="rgb(110,84,148)"/><rect x="398.444" y="199.222" width="49.806" height="49.806" transform="matrix(1,0,0,1,0,0)" fill="rgb(110,84,148)"/><rect x="348.639" y="199.222" width="49.806" height="49.806" transform="matrix(1,0,0,1,0,0)" fill="rgb(110,84,148)"/><rect x="348.639" y="149.417" width="49.806" height="49.806" transform="matrix(1,0,0,1,0,0)" fill="rgb(110,84,148)"/><rect x="398.444" y="149.417" width="49.806" height="49.806" transform="matrix(1,0,0,1,0,0)" fill="rgb(110,84,148)"/><rect x="398.444" y="99.611" width="49.806" height="49.806" transform="matrix(1,0,0,1,0,0)" fill="rgb(110,84,148)"/><rect x="348.639" y="99.611" width="49.806" height="49.806" transform="matrix(1,0,0,1,0,0)" fill="rgb(110,84,148)"/><rect x="49.806" y="49.806" width="49.806" height="49.806" transform="matrix(1,0,0,1,0,0)" fill="rgb(110,84,148)"/><rect x="99.611" y="49.806" width="49.806" height="49.806" transform="matrix(1,0,0,1,0,0)" fill="rgb(110,84,148)"/><rect x="99.611" y="0" width="49.806" height="49.806" transform="matrix(1,0,0,1,0,0)" fill="rgb(110,84,148)"/><rect x="149.417" y="49.806" width="49.806" height="49.806" transform="matrix(1,0,0,1,0,0)" fill="rgb(110,84,148)"/><rect x="199.222" y="49.806" width="49.806" height="49.806" transform="matrix(1,0,0,1,0,0)" fill="rgb(110,84,148)"/><rect x="199.222" y="0" width="49.806" height="49.806" transform="matrix(1,0,0,1,0,0)" fill="rgb(110,84,148)"/><rect x="149.417" y="0" width="49.806" height="49.806" transform="matrix(1,0,0,1,0,0)" fill="rgb(110,84,148)"/><rect x="249.028" y="49.806" width="49.806" height="49.806" transform="matrix(1,0,0,1,0,0)" fill="rgb(110,84,148)"/><rect x="298.833" y="49.806" width="49.806" height="49.806" transform="matrix(1,0,0,1,0,0)" fill="rgb(110,84,148)"/><rect x="298.833" y="0" width="49.806" height="49.806" transform="matrix(1,0,0,1,0,0)" fill="rgb(110,84,148)"/><rect x="249.028" y="0" width="49.806" height="49.806" transform="matrix(1,0,0,1,0,0)" fill="rgb(110,84,148)"/><rect x="348.639" y="49.806" width="49.806" height="49.806" transform="matrix(1,0,0,1,0,0)" fill="rgb(110,84,148)"/></g></g></svg>