<?xml version="1.0" encoding="UTF-8" standalone="no"?><!-- Generator: Gravit.io --><svg xmlns="http://www.w3.org/2000/svg" xmlns:xlink="http://www.w3.org/1999/xlink" style="isolation:isolate" viewBox="0 0 448.25 448.15" width="448.25pt" height="448.15pt"><defs><clipPath id="_clipPath_XkHjforH61n27xtQ1Jpg7PrOPeQRSI0k"><rect width="448.25" height="448.15"/></clipPath></defs><g clip-path="url(#_clipPath_XkHjforH61n27xtQ1Jpg7PrOPeQRSI0k)"><rect width="448.25" height="448.15" style="fill:rgb(0,0,0)" fill-opacity="0"/><rect x="49.979" y="400.021" width="49.979" height="49.979" transform="matrix(1,0,0,1,0,0)" fill="rgb(225,48,108)"/><rect x="99.959" y="400.021" width="49.979" height="49.979" transform="matrix(1,0,0,1,0,0)" fill="rgb(225,48,108)"/><rect x="149.938" y="400.021" width="49.979" height="49.979" transform="matrix(1,0,0,1,0,0)" fill="rgb(225,48,108)"/><rect x="199.918" y="400.021" width="49.979" height="49.979" transform="matrix(1,0,0,1,0,0)" fill="rgb(225,48,108)"/><rect x="249.897" y="400.021" width="49.979" height="49.979" transform="matrix(1,0,0,1,0,0)" fill="rgb(225,48,108)"/><rect x="299.877" y="400.021" width="49.979" height="49.979" transform="matrix(1,0,0,1,0,0)" fill="rgb(225,48,108)"/><rect x="349.856" y="400.021" width="49.979" height="49.979" transform="matrix(1,0,0,1,0,0)" fill="rgb(225,48,108)"/><rect x="0" y="349.856" width="49.979" height="49.979" transform="matrix(0,-1,1,0,-349.856,399.836)" fill="rgb(225,48,108)"/><rect x="0" y="299.877" width="49.979" height="49.979" transform="matrix(0,-1,1,0,-299.877,349.856)" fill="rgb(225,48,108)"/><rect x="0" y="249.897" width="49.979" height="49.979" transform="matrix(0,-1,1,0,-249.897,299.877)" fill="rgb(225,48,108)"/><rect x="0" y="199.918" width="49.979" height="49.979" transform="matrix(0,-1,1,0,-199.918,249.897)" fill="rgb(225,48,108)"/><rect x="0" y="149.938" width="49.979" height="49.979" transform="matrix(0,-1,1,0,-149.938,199.918)" fill="rgb(225,48,108)"/><rect x="0" y="99.959" width="49.979" height="49.979" transform="matrix(0,-1,1,0,-99.959,149.938)" fill="rgb(225,48,108)"/><rect x="0" y="49.979" width="49.979" height="49.979" transform="matrix(0,-1,1,0,-49.979,99.959)" fill="rgb(225,48,108)"/><rect x="349.856" y="0" width="49.979" height="49.979" transform="matrix(-1,0,0,-1,749.692,49.979)" fill="rgb(225,48,108)"/><rect x="299.877" y="0" width="49.979" height="49.979" transform="matrix(-1,0,0,-1,649.733,49.979)" fill="rgb(225,48,108)"/><rect x="249.897" y="0" width="49.979" height="49.979" transform="matrix(-1,0,0,-1,549.774,49.979)" fill="rgb(225,48,108)"/><rect x="199.918" y="0" width="49.979" height="49.979" transform="matrix(-1,0,0,-1,449.815,49.979)" fill="rgb(225,48,108)"/><rect x="149.938" y="0" width="49.979" height="49.979" transform="matrix(-1,0,0,-1,349.856,49.979)" fill="rgb(225,48,108)"/><rect x="99.959" y="0" width="49.979" height="49.979" transform="matrix(-1,0,0,-1,249.897,49.979)" fill="rgb(225,48,108)"/><rect x="49.979" y="0" width="49.979" height="49.979" transform="matrix(-1,0,0,-1,149.938,49.979)" fill="rgb(225,48,108)"/><rect x="399.836" y="50.164" width="49.979" height="49.979" transform="matrix(0,1,-1,0,499.979,-349.672)" fill="rgb(225,48,108)"/><rect x="299.877" y="100.144" width="49.979" height="49.979" transform="matrix(0,1,-1,0,450,-199.733)" fill="rgb(225,48,108)"/><rect x="199.918" y="100.144" width="49.979" height="49.979" transform="matrix(0,1,-1,0,350.041,-99.774)" fill="rgb(225,48,108)"/><rect x="199.918" y="300.062" width="49.979" height="49.979" transform="matrix(0,1,-1,0,549.959,100.144)" fill="rgb(225,48,108)"/><rect x="149.938" y="299.877" width="49.979" height="49.979" transform="matrix(0,1,-1,0,499.795,149.938)" fill="rgb(225,48,108)"/><rect x="249.897" y="299.877" width="49.979" height="49.979" transform="matrix(0,1,-1,0,599.754,49.979)" fill="rgb(225,48,108)"/><rect x="99.959" y="200.103" width="49.979" height="49.979" transform="matrix(-1,0,0,-1,249.897,450.185)" fill="rgb(225,48,108)"/><rect x="100.144" y="150.123" width="49.979" height="49.979" transform="matrix(-1,0,0,-1,250.267,350.226)" fill="rgb(225,48,108)"/><rect x="100.144" y="250.082" width="49.979" height="49.979" transform="matrix(-1,0,0,-1,250.267,550.144)" fill="rgb(225,48,108)"/><rect x="299.877" y="200.103" width="49.979" height="49.979" transform="matrix(-1,0,0,-1,649.733,450.185)" fill="rgb(225,48,108)"/><rect x="149.938" y="99.959" width="49.979" height="49.979" transform="matrix(-1,0,0,-1,349.856,249.897)" fill="rgb(225,48,108)"/><rect x="300.062" y="250.082" width="49.979" height="49.979" transform="matrix(-1,0,0,-1,650.103,550.144)" fill="rgb(225,48,108)"/><rect x="399.836" y="100.144" width="49.979" height="49.979" transform="matrix(0,1,-1,0,549.959,-299.692)" fill="rgb(225,48,108)"/><rect x="399.836" y="150.123" width="49.979" height="49.979" transform="matrix(0,1,-1,0,599.938,-249.713)" fill="rgb(225,48,108)"/><rect x="399.836" y="200.103" width="49.979" height="49.979" transform="matrix(0,1,-1,0,649.918,-199.733)" fill="rgb(225,48,108)"/><rect x="399.836" y="250.082" width="49.979" height="49.979" transform="matrix(0,1,-1,0,699.897,-149.754)" fill="rgb(225,48,108)"/><rect x="399.836" y="300.062" width="49.979" height="49.979" transform="matrix(0,1,-1,0,749.877,-99.774)" fill="rgb(225,48,108)"/><rect x="399.836" y="350.041" width="49.979" height="49.979" transform="matrix(0,1,-1,0,799.856,-49.795)" fill="rgb(225,48,108)"/></g></svg>