<?xml version="1.0" encoding="UTF-8" standalone="no"?><!-- Generator: Gravit.io --><svg xmlns="http://www.w3.org/2000/svg" xmlns:xlink="http://www.w3.org/1999/xlink" style="isolation:isolate" viewBox="0 0 448 447.99" width="448pt" height="447.99pt"><defs><clipPath id="_clipPath_ulZGfD38fz38TKN7uKV0gKxWoGepd9OC"><rect width="448" height="447.99"/></clipPath></defs><g clip-path="url(#_clipPath_ulZGfD38fz38TKN7uKV0gKxWoGepd9OC)"><rect width="448" height="447.99" style="fill:rgb(0,0,0)" fill-opacity="0"/><g><rect x="2.974" y="348.212" width="49.889" height="49.889" transform="matrix(1,0,0,1,0,0)" fill="rgb(57,119,181)"/><rect x="52.863" y="348.212" width="49.889" height="49.889" transform="matrix(1,0,0,1,0,0)" fill="rgb(57,119,181)"/><rect x="52.863" y="298.323" width="49.889" height="49.889" transform="matrix(1,0,0,1,0,0)" fill="rgb(57,119,181)"/><rect x="2.974" y="298.323" width="49.889" height="49.889" transform="matrix(1,0,0,1,0,0)" fill="rgb(57,119,181)"/><rect x="2.974" y="248.249" width="49.889" height="49.889" transform="matrix(1,0,0,1,0,0)" fill="rgb(57,119,181)"/><rect x="52.863" y="248.249" width="49.889" height="49.889" transform="matrix(1,0,0,1,0,0)" fill="rgb(57,119,181)"/><rect x="2.974" y="198.544" width="49.889" height="49.889" transform="matrix(1,0,0,1,0,0)" fill="rgb(57,119,181)"/><rect x="52.863" y="198.544" width="49.889" height="49.889" transform="matrix(1,0,0,1,0,0)" fill="rgb(57,119,181)"/><rect x="52.863" y="148.655" width="49.889" height="49.889" transform="matrix(1,0,0,1,0,0)" fill="rgb(57,119,181)"/><rect x="2.974" y="148.655" width="49.889" height="49.889" transform="matrix(1,0,0,1,0,0)" fill="rgb(57,119,181)"/><rect x="2.974" y="49.889" width="49.889" height="49.889" transform="matrix(1,0,0,1,0,0)" fill="rgb(57,119,181)"/><rect x="52.863" y="49.889" width="49.889" height="49.889" transform="matrix(1,0,0,1,0,0)" fill="rgb(57,119,181)"/><rect x="52.863" y="0" width="49.889" height="49.889" transform="matrix(1,0,0,1,0,0)" fill="rgb(57,119,181)"/><rect x="2.974" y="0" width="49.889" height="49.889" transform="matrix(1,0,0,1,0,0)" fill="rgb(57,119,181)"/><rect x="345.248" y="346.448" width="49.889" height="49.889" transform="matrix(1,0,0,1,0,0)" fill="rgb(57,119,181)"/><rect x="395.137" y="346.448" width="49.889" height="49.889" transform="matrix(1,0,0,1,0,0)" fill="rgb(57,119,181)"/><rect x="395.137" y="296.559" width="49.889" height="49.889" transform="matrix(1,0,0,1,0,0)" fill="rgb(57,119,181)"/><rect x="345.248" y="296.559" width="49.889" height="49.889" transform="matrix(1,0,0,1,0,0)" fill="rgb(57,119,181)"/><rect x="345.248" y="246.486" width="49.889" height="49.889" transform="matrix(1,0,0,1,0,0)" fill="rgb(57,119,181)"/><rect x="395.137" y="246.486" width="49.889" height="49.889" transform="matrix(1,0,0,1,0,0)" fill="rgb(57,119,181)"/><rect x="345.248" y="196.781" width="49.889" height="49.889" transform="matrix(1,0,0,1,0,0)" fill="rgb(57,119,181)"/><rect x="395.137" y="196.781" width="49.889" height="49.889" transform="matrix(1,0,0,1,0,0)" fill="rgb(57,119,181)"/><rect x="395.137" y="146.892" width="49.889" height="49.889" transform="matrix(1,0,0,1,0,0)" fill="rgb(57,119,181)"/><rect x="345.248" y="146.892" width="49.889" height="49.889" transform="matrix(1,0,0,1,0,0)" fill="rgb(57,119,181)"/><rect x="145.691" y="348.212" width="49.889" height="49.889" transform="matrix(1,0,0,1,0,0)" fill="rgb(57,119,181)"/><rect x="195.58" y="348.212" width="49.889" height="49.889" transform="matrix(1,0,0,1,0,0)" fill="rgb(57,119,181)"/><rect x="2.974" y="398.101" width="49.889" height="49.889" transform="matrix(1,0,0,1,0,0)" fill="rgb(57,119,181)"/><rect x="52.863" y="398.101" width="49.889" height="49.889" transform="matrix(1,0,0,1,0,0)" fill="rgb(57,119,181)"/><rect x="345.248" y="396.338" width="49.889" height="49.889" transform="matrix(1,0,0,1,0,0)" fill="rgb(57,119,181)"/><rect x="395.137" y="396.338" width="49.889" height="49.889" transform="matrix(1,0,0,1,0,0)" fill="rgb(57,119,181)"/><rect x="145.691" y="398.101" width="49.889" height="49.889" transform="matrix(1,0,0,1,0,0)" fill="rgb(57,119,181)"/><rect x="195.58" y="398.101" width="49.889" height="49.889" transform="matrix(1,0,0,1,0,0)" fill="rgb(57,119,181)"/><rect x="195.58" y="298.323" width="49.889" height="49.889" transform="matrix(1,0,0,1,0,0)" fill="rgb(57,119,181)"/><rect x="145.691" y="298.323" width="49.889" height="49.889" transform="matrix(1,0,0,1,0,0)" fill="rgb(57,119,181)"/><rect x="145.691" y="248.249" width="49.889" height="49.889" transform="matrix(1,0,0,1,0,0)" fill="rgb(57,119,181)"/><rect x="195.58" y="248.249" width="49.889" height="49.889" transform="matrix(1,0,0,1,0,0)" fill="rgb(57,119,181)"/><rect x="145.691" y="198.544" width="49.889" height="49.889" transform="matrix(1,0,0,1,0,0)" fill="rgb(57,119,181)"/><rect x="195.58" y="198.544" width="49.889" height="49.889" transform="matrix(1,0,0,1,0,0)" fill="rgb(57,119,181)"/><rect x="245.47" y="197.991" width="49.889" height="49.889" transform="matrix(1,0,0,1,0,0)" fill="rgb(57,119,181)"/><rect x="295.359" y="146.892" width="49.889" height="49.889" transform="matrix(1,0,0,1,0,0)" fill="rgb(57,119,181)"/><rect x="195.58" y="148.655" width="49.889" height="49.889" transform="matrix(1,0,0,1,0,0)" fill="rgb(57,119,181)"/><rect x="145.691" y="148.655" width="49.889" height="49.889" transform="matrix(1,0,0,1,0,0)" fill="rgb(57,119,181)"/></g></g></svg>