<?xml version="1.0" encoding="UTF-8" standalone="no"?><!-- Generator: Gravit.io --><svg xmlns="http://www.w3.org/2000/svg" xmlns:xlink="http://www.w3.org/1999/xlink" style="isolation:isolate" viewBox="0 0 511.998 415.837" width="511.998pt" height="415.837pt"><defs><clipPath id="_clipPath_0MWesgF78NDupQctBhbJMMbnQJQLJ3rB"><rect width="511.998" height="415.837"/></clipPath></defs><g clip-path="url(#_clipPath_0MWesgF78NDupQctBhbJMMbnQJQLJ3rB)"><rect width="511.998" height="415.837" style="fill:rgb(0,0,0)" fill-opacity="0"/><g><rect x="94.118" y="369.585" width="46.252" height="46.252" transform="matrix(1,0,0,1,0,0)" fill="rgb(85,172,238)"/><rect x="186.622" y="369.585" width="46.252" height="46.252" transform="matrix(1,0,0,1,0,0)" fill="rgb(85,172,238)"/><rect x="232.873" y="369.585" width="46.252" height="46.252" transform="matrix(1,0,0,1,0,0)" fill="rgb(85,172,238)"/><rect x="140.37" y="369.585" width="46.252" height="46.252" transform="matrix(1,0,0,1,0,0)" fill="rgb(85,172,238)"/><rect x="232.873" y="323.334" width="46.252" height="46.252" transform="matrix(1,0,0,1,0,0)" fill="rgb(85,172,238)"/><rect x="279.125" y="323.334" width="46.252" height="46.252" transform="matrix(1,0,0,1,0,0)" fill="rgb(85,172,238)"/><rect x="325.376" y="323.334" width="46.252" height="46.252" transform="matrix(1,0,0,1,0,0)" fill="rgb(85,172,238)"/><rect x="186.622" y="323.334" width="46.252" height="46.252" transform="matrix(1,0,0,1,0,0)" fill="rgb(85,172,238)"/><rect x="186.622" y="276.911" width="46.252" height="46.252" transform="matrix(1,0,0,1,0,0)" fill="rgb(85,172,238)"/><rect x="232.873" y="276.911" width="46.252" height="46.252" transform="matrix(1,0,0,1,0,0)" fill="rgb(85,172,238)"/><rect x="279.125" y="276.911" width="46.252" height="46.252" transform="matrix(1,0,0,1,0,0)" fill="rgb(85,172,238)"/><rect x="325.376" y="277.082" width="46.252" height="46.252" transform="matrix(1,0,0,1,0,0)" fill="rgb(85,172,238)"/><rect x="371.628" y="277.082" width="46.252" height="46.252" transform="matrix(1,0,0,1,0,0)" fill="rgb(85,172,238)"/><rect x="140.37" y="276.911" width="46.252" height="46.252" transform="matrix(1,0,0,1,0,0)" fill="rgb(85,172,238)"/><rect x="186.622" y="230.831" width="46.252" height="46.252" transform="matrix(1,0,0,1,0,0)" fill="rgb(85,172,238)"/><rect x="232.873" y="230.831" width="46.252" height="46.252" transform="matrix(1,0,0,1,0,0)" fill="rgb(85,172,238)"/><rect x="279.125" y="230.831" width="46.252" height="46.252" transform="matrix(1,0,0,1,0,0)" fill="rgb(85,172,238)"/><rect x="325.376" y="231.002" width="46.252" height="46.252" transform="matrix(1,0,0,1,0,0)" fill="rgb(85,172,238)"/><rect x="371.628" y="231.002" width="46.252" height="46.252" transform="matrix(1,0,0,1,0,0)" fill="rgb(85,172,238)"/><rect x="140.37" y="230.831" width="46.252" height="46.252" transform="matrix(1,0,0,1,0,0)" fill="rgb(85,172,238)"/><rect x="94.118" y="230.66" width="46.252" height="46.252" transform="matrix(1,0,0,1,0,0)" fill="rgb(85,172,238)"/><rect x="1.615" y="46.252" width="46.252" height="46.252" transform="matrix(1,0,0,1,0,0)" fill="rgb(85,172,238)"/><rect x="232.873" y="184.579" width="46.252" height="46.252" transform="matrix(1,0,0,1,0,0)" fill="rgb(85,172,238)"/><rect x="279.125" y="184.579" width="46.252" height="46.252" transform="matrix(1,0,0,1,0,0)" fill="rgb(85,172,238)"/><rect x="325.376" y="184.579" width="46.252" height="46.252" transform="matrix(1,0,0,1,0,0)" fill="rgb(85,172,238)"/><rect x="371.628" y="184.75" width="46.252" height="46.252" transform="matrix(1,0,0,1,0,0)" fill="rgb(85,172,238)"/><rect x="417.879" y="46.252" width="46.252" height="46.252" transform="matrix(1,0,0,1,0,0)" fill="rgb(85,172,238)"/><rect x="371.628" y="0" width="46.252" height="46.252" transform="matrix(1,0,0,1,0,0)" fill="rgb(85,172,238)"/><rect x="186.622" y="184.579" width="46.252" height="46.252" transform="matrix(1,0,0,1,0,0)" fill="rgb(85,172,238)"/><rect x="140.37" y="184.579" width="46.252" height="46.252" transform="matrix(1,0,0,1,0,0)" fill="rgb(85,172,238)"/><rect x="94.118" y="184.579" width="46.252" height="46.252" transform="matrix(1,0,0,1,0,0)" fill="rgb(85,172,238)"/><rect x="47.867" y="184.579" width="46.252" height="46.252" transform="matrix(1,0,0,1,0,0)" fill="rgb(85,172,238)"/><rect x="232.873" y="138.498" width="46.252" height="46.252" transform="matrix(1,0,0,1,0,0)" fill="rgb(85,172,238)"/><rect x="279.125" y="138.498" width="46.252" height="46.252" transform="matrix(1,0,0,1,0,0)" fill="rgb(85,172,238)"/><rect x="325.376" y="138.498" width="46.252" height="46.252" transform="matrix(1,0,0,1,0,0)" fill="rgb(85,172,238)"/><rect x="371.628" y="138.669" width="46.252" height="46.252" transform="matrix(1,0,0,1,0,0)" fill="rgb(85,172,238)"/><rect x="417.879" y="138.669" width="46.252" height="46.252" transform="matrix(1,0,0,1,0,0)" fill="rgb(85,172,238)"/><rect x="279.125" y="92.247" width="46.252" height="46.252" transform="matrix(1,0,0,1,0,0)" fill="rgb(85,172,238)"/><rect x="325.376" y="92.247" width="46.252" height="46.252" transform="matrix(1,0,0,1,0,0)" fill="rgb(85,172,238)"/><rect x="371.628" y="92.247" width="46.252" height="46.252" transform="matrix(1,0,0,1,0,0)" fill="rgb(85,172,238)"/><rect x="325.376" y="45.995" width="46.252" height="46.252" transform="matrix(1,0,0,1,0,0)" fill="rgb(85,172,238)"/><rect x="371.628" y="45.995" width="46.252" height="46.252" transform="matrix(1,0,0,1,0,0)" fill="rgb(85,172,238)"/><rect x="417.879" y="92.418" width="46.252" height="46.252" transform="matrix(1,0,0,1,0,0)" fill="rgb(85,172,238)"/><rect x="464.131" y="92.418" width="46.252" height="46.252" transform="matrix(1,0,0,1,0,0)" fill="rgb(85,172,238)"/><rect x="186.622" y="138.498" width="46.252" height="46.252" transform="matrix(1,0,0,1,0,0)" fill="rgb(85,172,238)"/><rect x="140.37" y="138.498" width="46.252" height="46.252" transform="matrix(1,0,0,1,0,0)" fill="rgb(85,172,238)"/><rect x="94.118" y="138.498" width="46.252" height="46.252" transform="matrix(1,0,0,1,0,0)" fill="rgb(85,172,238)"/><rect x="94.118" y="91.905" width="46.252" height="46.252" transform="matrix(1,0,0,1,0,0)" fill="rgb(85,172,238)"/><rect x="47.867" y="91.905" width="46.252" height="46.252" transform="matrix(1,0,0,1,0,0)" fill="rgb(85,172,238)"/></g></g></svg>