<?xml version="1.0" encoding="UTF-8" standalone="no"?><!-- Generator: Gravit.io --><svg xmlns="http://www.w3.org/2000/svg" xmlns:xlink="http://www.w3.org/1999/xlink" style="isolation:isolate" viewBox="0 0 511.998 415.837" width="511.998pt" height="415.837pt"><defs><clipPath id="_clipPath_GHAOW2AR6PT8X6sNQNlR3rAVk7p2kigP"><rect width="511.998" height="415.837"/></clipPath></defs><g clip-path="url(#_clipPath_GHAOW2AR6PT8X6sNQNlR3rAVk7p2kigP)"><rect width="511.998" height="415.837" style="fill:rgb(0,0,0)" fill-opacity="0"/><g><rect x="51.2" y="364.637" width="51.2" height="51.2" transform="matrix(1,0,0,1,0,0)" fill="rgb(255,0,0)"/><rect x="51.2" y="313.437" width="51.2" height="51.2" transform="matrix(1,0,0,1,0,0)" fill="rgb(255,0,0)"/><rect x="0" y="313.437" width="51.2" height="51.2" transform="matrix(1,0,0,1,0,0)" fill="rgb(255,0,0)"/><rect x="0" y="262.048" width="51.2" height="51.2" transform="matrix(1,0,0,1,0,0)" fill="rgb(255,0,0)"/><rect x="51.2" y="262.048" width="51.2" height="51.2" transform="matrix(1,0,0,1,0,0)" fill="rgb(255,0,0)"/><rect x="0" y="211.038" width="51.2" height="51.2" transform="matrix(1,0,0,1,0,0)" fill="rgb(255,0,0)"/><rect x="51.2" y="211.038" width="51.2" height="51.2" transform="matrix(1,0,0,1,0,0)" fill="rgb(255,0,0)"/><rect x="51.2" y="159.838" width="51.2" height="51.2" transform="matrix(1,0,0,1,0,0)" fill="rgb(255,0,0)"/><rect x="0" y="159.838" width="51.2" height="51.2" transform="matrix(1,0,0,1,0,0)" fill="rgb(255,0,0)"/><rect x="0" y="108.638" width="51.2" height="51.2" transform="matrix(1,0,0,1,0,0)" fill="rgb(255,0,0)"/><rect x="51.2" y="108.638" width="51.2" height="51.2" transform="matrix(1,0,0,1,0,0)" fill="rgb(255,0,0)"/><rect x="51.2" y="57.438" width="51.2" height="51.2" transform="matrix(1,0,0,1,0,0)" fill="rgb(255,0,0)"/><rect x="102.4" y="364.637" width="51.2" height="51.2" transform="matrix(1,0,0,1,0,0)" fill="rgb(255,0,0)"/><rect x="153.599" y="364.637" width="51.2" height="51.2" transform="matrix(1,0,0,1,0,0)" fill="rgb(255,0,0)"/><rect x="153.599" y="313.437" width="51.2" height="51.2" transform="matrix(1,0,0,1,0,0)" fill="rgb(255,0,0)"/><rect x="102.4" y="313.437" width="51.2" height="51.2" transform="matrix(1,0,0,1,0,0)" fill="rgb(255,0,0)"/><rect x="102.4" y="262.048" width="51.2" height="51.2" transform="matrix(1,0,0,1,0,0)" fill="rgb(255,0,0)"/><rect x="153.599" y="262.048" width="51.2" height="51.2" transform="matrix(1,0,0,1,0,0)" fill="rgb(255,0,0)"/><rect x="102.4" y="211.038" width="51.2" height="51.2" transform="matrix(1,0,0,1,0,0)" fill="rgb(255,0,0)"/><rect x="153.599" y="211.038" width="51.2" height="51.2" transform="matrix(1,0,0,1,0,0)" fill="rgb(255,0,0)"/><rect x="153.599" y="159.838" width="51.2" height="51.2" transform="matrix(1,0,0,1,0,0)" fill="rgb(255,0,0)"/><rect x="102.4" y="159.838" width="51.2" height="51.2" transform="matrix(1,0,0,1,0,0)" fill="rgb(255,0,0)"/><rect x="102.4" y="108.638" width="51.2" height="51.2" transform="matrix(1,0,0,1,0,0)" fill="rgb(255,0,0)"/><rect x="153.599" y="108.638" width="51.2" height="51.2" transform="matrix(1,0,0,1,0,0)" fill="rgb(255,0,0)"/><rect x="153.599" y="57.438" width="51.2" height="51.2" transform="matrix(1,0,0,1,0,0)" fill="rgb(255,0,0)"/><rect x="102.4" y="57.438" width="51.2" height="51.2" transform="matrix(1,0,0,1,0,0)" fill="rgb(255,0,0)"/><rect x="204.799" y="364.637" width="51.2" height="51.2" transform="matrix(1,0,0,1,0,0)" fill="rgb(255,0,0)"/><rect x="255.999" y="364.637" width="51.2" height="51.2" transform="matrix(1,0,0,1,0,0)" fill="rgb(255,0,0)"/><rect x="255.999" y="313.437" width="51.2" height="51.2" transform="matrix(1,0,0,1,0,0)" fill="rgb(255,0,0)"/><rect x="255.999" y="108.638" width="51.2" height="51.2" transform="matrix(1,0,0,1,0,0)" fill="rgb(255,0,0)"/><rect x="255.999" y="57.438" width="51.2" height="51.2" transform="matrix(1,0,0,1,0,0)" fill="rgb(255,0,0)"/><rect x="204.799" y="57.438" width="51.2" height="51.2" transform="matrix(1,0,0,1,0,0)" fill="rgb(255,0,0)"/><rect x="307.199" y="364.637" width="51.2" height="51.2" transform="matrix(1,0,0,1,0,0)" fill="rgb(255,0,0)"/><rect x="358.399" y="364.637" width="51.2" height="51.2" transform="matrix(1,0,0,1,0,0)" fill="rgb(255,0,0)"/><rect x="358.399" y="313.437" width="51.2" height="51.2" transform="matrix(1,0,0,1,0,0)" fill="rgb(255,0,0)"/><rect x="307.199" y="313.437" width="51.2" height="51.2" transform="matrix(1,0,0,1,0,0)" fill="rgb(255,0,0)"/><rect x="307.199" y="262.048" width="51.2" height="51.2" transform="matrix(1,0,0,1,0,0)" fill="rgb(255,0,0)"/><rect x="358.399" y="262.048" width="51.2" height="51.2" transform="matrix(1,0,0,1,0,0)" fill="rgb(255,0,0)"/><rect x="358.399" y="211.038" width="51.2" height="51.2" transform="matrix(1,0,0,1,0,0)" fill="rgb(255,0,0)"/><rect x="358.399" y="159.838" width="51.2" height="51.2" transform="matrix(1,0,0,1,0,0)" fill="rgb(255,0,0)"/><rect x="307.199" y="159.838" width="51.2" height="51.2" transform="matrix(1,0,0,1,0,0)" fill="rgb(255,0,0)"/><rect x="307.199" y="108.638" width="51.2" height="51.2" transform="matrix(1,0,0,1,0,0)" fill="rgb(255,0,0)"/><rect x="358.399" y="108.638" width="51.2" height="51.2" transform="matrix(1,0,0,1,0,0)" fill="rgb(255,0,0)"/><rect x="358.399" y="57.438" width="51.2" height="51.2" transform="matrix(1,0,0,1,0,0)" fill="rgb(255,0,0)"/><rect x="307.199" y="57.438" width="51.2" height="51.2" transform="matrix(1,0,0,1,0,0)" fill="rgb(255,0,0)"/><rect x="409.598" y="364.637" width="51.2" height="51.2" transform="matrix(1,0,0,1,0,0)" fill="rgb(255,0,0)"/><rect x="460.798" y="313.437" width="51.2" height="51.2" transform="matrix(1,0,0,1,0,0)" fill="rgb(255,0,0)"/><rect x="409.598" y="313.437" width="51.2" height="51.2" transform="matrix(1,0,0,1,0,0)" fill="rgb(255,0,0)"/><rect x="409.598" y="262.048" width="51.2" height="51.2" transform="matrix(1,0,0,1,0,0)" fill="rgb(255,0,0)"/><rect x="460.798" y="262.048" width="51.2" height="51.2" transform="matrix(1,0,0,1,0,0)" fill="rgb(255,0,0)"/><rect x="409.598" y="211.038" width="51.2" height="51.2" transform="matrix(1,0,0,1,0,0)" fill="rgb(255,0,0)"/><rect x="460.798" y="211.038" width="51.2" height="51.2" transform="matrix(1,0,0,1,0,0)" fill="rgb(255,0,0)"/><rect x="460.798" y="159.838" width="51.2" height="51.2" transform="matrix(1,0,0,1,0,0)" fill="rgb(255,0,0)"/><rect x="409.598" y="159.838" width="51.2" height="51.2" transform="matrix(1,0,0,1,0,0)" fill="rgb(255,0,0)"/><rect x="409.598" y="108.638" width="51.2" height="51.2" transform="matrix(1,0,0,1,0,0)" fill="rgb(255,0,0)"/><rect x="460.798" y="108.638" width="51.2" height="51.2" transform="matrix(1,0,0,1,0,0)" fill="rgb(255,0,0)"/><rect x="409.598" y="57.438" width="51.2" height="51.2" transform="matrix(1,0,0,1,0,0)" fill="rgb(255,0,0)"/></g></g></svg>