<?xml version="1.0" standalone="no"?>
<!DOCTYPE svg PUBLIC "-//W3C//DTD SVG 20010904//EN"
 "http://www.w3.org/TR/2001/REC-SVG-20010904/DTD/svg10.dtd">
<svg version="1.0" xmlns="http://www.w3.org/2000/svg"
 width="1250.000000pt" height="1250.000000pt" viewBox="0 0 1250.000000 1250.000000"
 preserveAspectRatio="xMidYMid meet">
<metadata>
Created by potrace 1.11, written by Peter Selinger 2001-2013
</metadata>
<g transform="translate(0.000000,1250.000000) scale(0.100000,-0.100000)"
fill="#000000" stroke="none">
<path d="M5490 12325 c-1182 -154 -2246 -620 -3170 -1388 -187 -155 -602 -570
-757 -757 -618 -744 -1037 -1572 -1264 -2495 -21 -88 -39 -165 -39 -171 0 -6
28 -13 68 -17 37 -3 97 -17 132 -30 36 -14 637 -316 1335 -671 699 -356 1273
-648 1277 -649 13 -4 3739 3376 3734 3387 -2 6 -238 612 -524 1346 -332 851
-525 1359 -533 1403 l-12 67 -36 -1 c-20 0 -115 -11 -211 -24z"/>
<path d="M7462 12243 c10 -39 3641 -9778 3648 -9786 15 -16 277 354 427 603
804 1333 1070 2931 742 4460 -307 1437 -1119 2711 -2299 3609 -676 515 -1516
907 -2335 1090 -77 17 -151 34 -164 37 -19 4 -23 2 -19 -13z"/>
<path d="M5756 6931 c-830 -752 -1509 -1371 -1508 -1375 0 -5 994 -513 2209
-1130 1214 -617 2249 -1143 2298 -1170 132 -71 357 -204 553 -328 94 -59 174
-108 177 -108 3 0 -51 112 -119 248 -125 249 -228 472 -306 657 -32 76 -1603
4110 -1752 4498 -16 42 -33 77 -36 76 -4 0 -686 -615 -1516 -1368z"/>
<path d="M144 5748 c56 -765 272 -1544 622 -2248 433 -871 1038 -1598 1817
-2186 1264 -954 2866 -1380 4447 -1183 936 117 1800 433 2605 954 l89 58 -144
72 c-334 167 -9429 4625 -9435 4625 -5 0 -5 -42 -1 -92z"/>
</g>
</svg>
